%TF.GenerationSoftware,KiCad,Pcbnew,10.0.5*%
%TF.CreationDate,2026-08-26T13:15:44-07:00*%
%TF.ProjectId,mako1_filled,6d616b6f-315f-4666-996c-6c65642e6b69,rev?*%
%TF.SameCoordinates,Original*%
%TF.FileFunction,Profile,NP*%
%FSLAX46Y46*%
G04 Gerber Fmt 4.6, Leading zero omitted, Abs format (unit mm)*
G04 Created by KiCad (PCBNEW 10.0.5) date 2026-08-26 13:15:44*
%MOMM*%
%LPD*%
G01*
G04 APERTURE LIST*
%TA.AperFunction,Profile*%
%ADD10C,0.100000*%
%TD*%
G04 APERTURE END LIST*
D10*
X0Y-8000000D02*
G75*
G02*
X8000000Y0I7999844J156D01*
G01*
X0Y-144400000D02*
X0Y-8000000D01*
X8000000Y0D02*
X347600000Y0D01*
X8000000Y-152400000D02*
G75*
G02*
X0Y-144400000I-156J7999844D01*
G01*
X17500000Y-12500000D02*
G75*
G02*
X7500000Y-12500000I-5000000J0D01*
G01*
X7500000Y-12500000D02*
G75*
G02*
X17500000Y-12500000I5000000J0D01*
G01*
X17500000Y-139900000D02*
G75*
G02*
X7500000Y-139900000I-5000000J0D01*
G01*
X7500000Y-139900000D02*
G75*
G02*
X17500000Y-139900000I5000000J0D01*
G01*
X155000000Y-12500000D02*
G75*
G02*
X145000000Y-12500000I-5000000J0D01*
G01*
X145000000Y-12500000D02*
G75*
G02*
X155000000Y-12500000I5000000J0D01*
G01*
X155000000Y-139900000D02*
G75*
G02*
X145000000Y-139900000I-5000000J0D01*
G01*
X145000000Y-139900000D02*
G75*
G02*
X155000000Y-139900000I5000000J0D01*
G01*
X210600000Y-12500000D02*
G75*
G02*
X200600000Y-12500000I-5000000J0D01*
G01*
X200600000Y-12500000D02*
G75*
G02*
X210600000Y-12500000I5000000J0D01*
G01*
X210600000Y-139900000D02*
G75*
G02*
X200600000Y-139900000I-5000000J0D01*
G01*
X200600000Y-139900000D02*
G75*
G02*
X210600000Y-139900000I5000000J0D01*
G01*
X348100000Y-12500000D02*
G75*
G02*
X338100000Y-12500000I-5000000J0D01*
G01*
X338100000Y-12500000D02*
G75*
G02*
X348100000Y-12500000I5000000J0D01*
G01*
X348100000Y-139900000D02*
G75*
G02*
X338100000Y-139900000I-5000000J0D01*
G01*
X338100000Y-139900000D02*
G75*
G02*
X348100000Y-139900000I5000000J0D01*
G01*
X347600000Y0D02*
G75*
G02*
X355600000Y-8000000I200J-7999800D01*
G01*
X347600000Y-152400000D02*
X8000000Y-152400000D01*
X355600000Y-8000000D02*
X355600000Y-144400000D01*
X355600000Y-144400000D02*
G75*
G02*
X347600000Y-152400000I-7999800J-200D01*
G01*
M02*
