%TF.GenerationSoftware,KiCad,Pcbnew,10.0.5*%
%TF.CreationDate,2026-08-26T13:15:44-07:00*%
%TF.ProjectId,mako1_filled,6d616b6f-315f-4666-996c-6c65642e6b69,rev?*%
%TF.SameCoordinates,Original*%
%TF.FileFunction,Legend,Bot*%
%TF.FilePolarity,Positive*%
%FSLAX46Y46*%
G04 Gerber Fmt 4.6, Leading zero omitted, Abs format (unit mm)*
G04 Created by KiCad (PCBNEW 10.0.5) date 2026-08-26 13:15:44*
%MOMM*%
%LPD*%
G01*
G04 APERTURE LIST*
%ADD10C,0.150000*%
%ADD11C,0.120000*%
G04 APERTURE END LIST*
D10*
X145410588Y-99654819D02*
X145410588Y-100464342D01*
X145410588Y-100464342D02*
X145362969Y-100559580D01*
X145362969Y-100559580D02*
X145315350Y-100607200D01*
X145315350Y-100607200D02*
X145220112Y-100654819D01*
X145220112Y-100654819D02*
X145029636Y-100654819D01*
X145029636Y-100654819D02*
X144934398Y-100607200D01*
X144934398Y-100607200D02*
X144886779Y-100559580D01*
X144886779Y-100559580D02*
X144839160Y-100464342D01*
X144839160Y-100464342D02*
X144839160Y-99654819D01*
X143839160Y-100654819D02*
X144410588Y-100654819D01*
X144124874Y-100654819D02*
X144124874Y-99654819D01*
X144124874Y-99654819D02*
X144220112Y-99797676D01*
X144220112Y-99797676D02*
X144315350Y-99892914D01*
X144315350Y-99892914D02*
X144410588Y-99940533D01*
X179089160Y-9154819D02*
X179089160Y-9869104D01*
X179089160Y-9869104D02*
X179136779Y-10011961D01*
X179136779Y-10011961D02*
X179232017Y-10107200D01*
X179232017Y-10107200D02*
X179374874Y-10154819D01*
X179374874Y-10154819D02*
X179470112Y-10154819D01*
X178089160Y-10154819D02*
X178660588Y-10154819D01*
X178374874Y-10154819D02*
X178374874Y-9154819D01*
X178374874Y-9154819D02*
X178470112Y-9297676D01*
X178470112Y-9297676D02*
X178565350Y-9392914D01*
X178565350Y-9392914D02*
X178660588Y-9440533D01*
%TO.C,U1*%
D11*
X146300000Y-89700000D02*
X146300000Y-110700000D01*
X146300000Y-110700000D02*
X197300000Y-110700000D01*
X197300000Y-89700000D02*
X146300000Y-89700000D01*
X197300000Y-110700000D02*
X197300000Y-89700000D01*
%TO.C,J1*%
X159800000Y-12450000D02*
X159800000Y-25950000D01*
X159800000Y-25950000D02*
X195800000Y-25950000D01*
X195800000Y-12450000D02*
X159800000Y-12450000D01*
X195800000Y-25950000D02*
X195800000Y-12450000D01*
%TD*%
M02*
