M48
; DRILL file KiCad 10.0.5 date 2026-08-26T13:15:45
; FORMAT={-:-/ absolute / metric / decimal}
; #@! TF.CreationDate,2026-08-26T13:15:45-07:00
; #@! TF.GenerationSoftware,Kicad,Pcbnew,10.0.5
; #@! TF.FileFunction,MixedPlating,1,2
FMAT,2
METRIC
; #@! TA.AperFunction,Plated,PTH,ComponentDrill
T1C1.000
; #@! TA.AperFunction,Plated,PTH,ComponentDrill
T2C1.020
; #@! TA.AperFunction,Plated,PTH,ComponentDrill
T3C1.500
; #@! TA.AperFunction,Plated,PTH,ComponentDrill
T4C3.000
; #@! TA.AperFunction,NonPlated,NPTH,ComponentDrill
T5C1.700
; #@! TA.AperFunction,NonPlated,NPTH,ComponentDrill
T6C3.200
; #@! TA.AperFunction,NonPlated,NPTH,ComponentDrill
T7C4.000
%
G90
G05
T1
X170.18Y-17.93
X170.18Y-20.47
X170.18Y-23.01
X185.42Y-15.39
X185.42Y-17.93
X185.42Y-20.47
X185.42Y-23.01
T2
X147.67Y-91.31
X147.67Y-109.09
X150.21Y-91.31
X150.21Y-109.09
X152.75Y-91.31
X152.75Y-109.09
X155.29Y-91.31
X155.29Y-109.09
X157.83Y-91.31
X157.83Y-109.09
X160.37Y-91.31
X160.37Y-109.09
X162.91Y-91.31
X162.91Y-109.09
X165.45Y-91.31
X165.45Y-109.09
X167.99Y-91.31
X167.99Y-109.09
X170.53Y-91.31
X170.53Y-109.09
X173.07Y-91.31
X173.07Y-109.09
X175.61Y-91.31
X175.61Y-109.09
X178.15Y-91.31
X178.15Y-109.09
X180.69Y-91.31
X180.69Y-109.09
X183.23Y-91.31
X183.23Y-109.09
X185.77Y-91.31
X185.77Y-109.09
X188.31Y-91.31
X188.31Y-109.09
X190.85Y-91.31
X190.85Y-109.09
X193.39Y-91.31
X193.39Y-109.09
X195.93Y-91.31
X195.93Y-109.09
T3
X20.69Y-62.19
X27.04Y-64.73
X47.34Y-45.94
X53.69Y-48.48
X73.99Y-42.74
X80.34Y-45.28
X100.14Y-54.49
X103.99Y-123.74
X106.49Y-57.03
X110.34Y-126.28
X122.49Y-136.49
X128.84Y-139.03
X173.99Y-60.74
X180.34Y-63.28
X225.49Y-110.99
X225.49Y-136.49
X231.84Y-113.53
X231.84Y-139.03
X243.99Y-98.24
X243.99Y-123.74
X247.84Y-32.49
X247.84Y-54.49
X250.34Y-100.78
X250.34Y-126.28
X254.19Y-35.03
X254.19Y-57.03
X262.49Y-110.99
X268.84Y-113.53
X273.99Y-20.74
X273.99Y-42.74
X280.34Y-23.28
X280.34Y-45.28
X300.64Y-23.94
X300.64Y-45.94
X306.99Y-26.48
X306.99Y-48.48
X327.29Y-40.19
X327.29Y-62.19
X333.64Y-42.73
X333.64Y-64.73
T4
X24.5Y-65.55
X29.5Y-63.45
X51.15Y-49.3
X56.15Y-47.2
X77.8Y-46.1
X82.8Y-44.0
X103.95Y-57.85
X107.8Y-127.1
X108.95Y-55.75
X112.8Y-125.0
X126.3Y-139.85
X131.3Y-137.75
X177.8Y-64.1
X182.8Y-62.0
X229.3Y-114.35
X229.3Y-139.85
X234.3Y-112.25
X234.3Y-137.75
X247.8Y-101.6
X247.8Y-127.1
X251.65Y-35.85
X251.65Y-57.85
X252.8Y-99.5
X252.8Y-125.0
X256.65Y-33.75
X256.65Y-55.75
X266.3Y-114.35
X271.3Y-112.25
X277.8Y-24.1
X277.8Y-46.1
X282.8Y-22.0
X282.8Y-44.0
X304.45Y-27.3
X304.45Y-49.3
X309.45Y-25.2
X309.45Y-47.2
X331.1Y-43.55
X331.1Y-65.55
X336.1Y-41.45
X336.1Y-63.45
T5
X19.21Y-59.65
X29.79Y-59.65
X45.86Y-43.4
X56.44Y-43.4
X72.51Y-40.2
X83.09Y-40.2
X98.66Y-51.95
X102.51Y-121.2
X109.24Y-51.95
X113.09Y-121.2
X121.01Y-133.95
X131.59Y-133.95
X172.51Y-58.2
X183.09Y-58.2
X224.01Y-108.45
X224.01Y-133.95
X234.59Y-108.45
X234.59Y-133.95
X242.51Y-95.7
X242.51Y-121.2
X246.36Y-29.95
X246.36Y-51.95
X253.09Y-95.7
X253.09Y-121.2
X256.94Y-29.95
X256.94Y-51.95
X261.01Y-108.45
X271.59Y-108.45
X272.51Y-18.2
X272.51Y-40.2
X283.09Y-18.2
X283.09Y-40.2
X299.16Y-21.4
X299.16Y-43.4
X309.74Y-21.4
X309.74Y-43.4
X325.81Y-37.65
X325.81Y-59.65
X336.39Y-37.65
X336.39Y-59.65
T6
X163.8Y-16.95
X191.8Y-16.95
T7
X24.5Y-59.65
X51.15Y-43.4
X77.8Y-40.2
X103.95Y-51.95
X107.8Y-121.2
X126.3Y-133.95
X177.8Y-58.2
X229.3Y-108.45
X229.3Y-133.95
X247.8Y-95.7
X247.8Y-121.2
X251.65Y-29.95
X251.65Y-51.95
X266.3Y-108.45
X277.8Y-18.2
X277.8Y-40.2
X304.45Y-21.4
X304.45Y-43.4
X331.1Y-37.65
X331.1Y-59.65
M30
