%TF.GenerationSoftware,KiCad,Pcbnew,10.0.5*%
%TF.CreationDate,2026-08-26T13:15:44-07:00*%
%TF.ProjectId,mako1_filled,6d616b6f-315f-4666-996c-6c65642e6b69,rev?*%
%TF.SameCoordinates,Original*%
%TF.FileFunction,Paste,Bot*%
%TF.FilePolarity,Positive*%
%FSLAX46Y46*%
G04 Gerber Fmt 4.6, Leading zero omitted, Abs format (unit mm)*
G04 Created by KiCad (PCBNEW 10.0.5) date 2026-08-26 13:15:44*
%MOMM*%
%LPD*%
G01*
G04 APERTURE LIST*
%ADD10R,2.600000X2.600000*%
G04 APERTURE END LIST*
D10*
%TO.C,SW17*%
X256075000Y-99500000D03*
X244525000Y-101600000D03*
%TD*%
%TO.C,SW7*%
X312725000Y-25200000D03*
X301175000Y-27300000D03*
%TD*%
%TO.C,SW5*%
X259925000Y-33750000D03*
X248375000Y-35850000D03*
%TD*%
%TO.C,SW10*%
X286075000Y-44000000D03*
X274525000Y-46100000D03*
%TD*%
%TO.C,SW9*%
X259925000Y-55750000D03*
X248375000Y-57850000D03*
%TD*%
%TO.C,SW18*%
X237575000Y-112250000D03*
X226025000Y-114350000D03*
%TD*%
%TO.C,SW20*%
X186075000Y-62000000D03*
X174525000Y-64100000D03*
%TD*%
%TO.C,SW3*%
X59425000Y-47200000D03*
X47875000Y-49300000D03*
%TD*%
%TO.C,SW6*%
X286075000Y-22000000D03*
X274525000Y-24100000D03*
%TD*%
%TO.C,SW1*%
X112225000Y-55750000D03*
X100675000Y-57850000D03*
%TD*%
%TO.C,SW11*%
X312725000Y-47200000D03*
X301175000Y-49300000D03*
%TD*%
%TO.C,SW14*%
X134575000Y-137750000D03*
X123025000Y-139850000D03*
%TD*%
%TO.C,SW4*%
X32775000Y-63450000D03*
X21225000Y-65550000D03*
%TD*%
%TO.C,SW16*%
X237575000Y-137750000D03*
X226025000Y-139850000D03*
%TD*%
%TO.C,SW12*%
X339375000Y-63450000D03*
X327825000Y-65550000D03*
%TD*%
%TO.C,SW8*%
X339375000Y-41450000D03*
X327825000Y-43550000D03*
%TD*%
%TO.C,SW13*%
X116075000Y-125000000D03*
X104525000Y-127100000D03*
%TD*%
%TO.C,SW19*%
X274575000Y-112250000D03*
X263025000Y-114350000D03*
%TD*%
%TO.C,SW15*%
X256075000Y-125000000D03*
X244525000Y-127100000D03*
%TD*%
%TO.C,SW2*%
X86075000Y-44000000D03*
X74525000Y-46100000D03*
%TD*%
M02*
